<svg width="20" height="20" viewBox="0 0 20 20" fill="none" xmlns="http://www.w3.org/2000/svg">
<g clip-path="url(#clip0_2053_520)">
<path d="M10 12.5C13.2217 12.5 15.8334 9.88831 15.8334 6.66665C15.8334 3.44499 13.2217 0.833313 10 0.833313C6.77836 0.833313 4.16669 3.44499 4.16669 6.66665C4.16669 9.88831 6.77836 12.5 10 12.5Z" fill="#9ECAE8"/>
<path d="M6.84169 11.575L5.83335 19.1666L10 16.6666L14.1667 19.1666L13.1584 11.5666" fill="#9ECAE8"/>
<path d="M6.84169 11.575L5.83335 19.1666L10 16.6666L14.1667 19.1666L13.1584 11.5666M15.8334 6.66665C15.8334 9.88831 13.2217 12.5 10 12.5C6.77836 12.5 4.16669 9.88831 4.16669 6.66665C4.16669 3.44499 6.77836 0.833313 10 0.833313C13.2217 0.833313 15.8334 3.44499 15.8334 6.66665Z" stroke="#1E1E1E" stroke-width="2" stroke-linecap="round" stroke-linejoin="round"/>
</g>
<defs>
<clipPath id="clip0_2053_520">
<rect width="20" height="20" fill="white"/>
</clipPath>
</defs>
</svg>
