<svg width="20" height="20" viewBox="0 0 20 20" fill="none" xmlns="http://www.w3.org/2000/svg">
<g clip-path="url(#clip0_2053_538)">
<path d="M10 18.3333C14.6024 18.3333 18.3334 14.6023 18.3334 9.99996C18.3334 5.39759 14.6024 1.66663 10 1.66663C5.39765 1.66663 1.66669 5.39759 1.66669 9.99996C1.66669 14.6023 5.39765 18.3333 10 18.3333Z" fill="#9ECAE8"/>
<path d="M13.5334 6.46663L11.7667 11.7666L6.46669 13.5333L8.23335 8.23329L13.5334 6.46663Z" fill="#9ECAE8"/>
<path d="M10 18.3333C14.6024 18.3333 18.3334 14.6023 18.3334 9.99996C18.3334 5.39759 14.6024 1.66663 10 1.66663C5.39765 1.66663 1.66669 5.39759 1.66669 9.99996C1.66669 14.6023 5.39765 18.3333 10 18.3333Z" stroke="#1E1E1E" stroke-width="2" stroke-linecap="round" stroke-linejoin="round"/>
<path d="M13.5334 6.46663L11.7667 11.7666L6.46669 13.5333L8.23335 8.23329L13.5334 6.46663Z" stroke="#1E1E1E" stroke-width="2" stroke-linecap="round" stroke-linejoin="round"/>
</g>
<defs>
<clipPath id="clip0_2053_538">
<rect width="20" height="20" fill="white"/>
</clipPath>
</defs>
</svg>
