<svg width="20" height="20" viewBox="0 0 20 20" fill="none" xmlns="http://www.w3.org/2000/svg">
<g clip-path="url(#clip0_2053_650)">
<path d="M19.1667 5.83329L13.3333 9.99996L19.1667 14.1666V5.83329Z" fill="#EAB3D6"/>
<path d="M11.6667 4.16663H2.5C1.57952 4.16663 0.833332 4.91282 0.833332 5.83329V14.1666C0.833332 15.0871 1.57952 15.8333 2.5 15.8333H11.6667C12.5871 15.8333 13.3333 15.0871 13.3333 14.1666V5.83329C13.3333 4.91282 12.5871 4.16663 11.6667 4.16663Z" fill="#EAB3D6"/>
<path d="M19.1667 5.83329L13.3333 9.99996L19.1667 14.1666V5.83329Z" stroke="#1E1E1E" stroke-width="2" stroke-linecap="round" stroke-linejoin="round"/>
<path d="M11.6667 4.16663H2.5C1.57952 4.16663 0.833332 4.91282 0.833332 5.83329V14.1666C0.833332 15.0871 1.57952 15.8333 2.5 15.8333H11.6667C12.5871 15.8333 13.3333 15.0871 13.3333 14.1666V5.83329C13.3333 4.91282 12.5871 4.16663 11.6667 4.16663Z" stroke="#1E1E1E" stroke-width="2" stroke-linecap="round" stroke-linejoin="round"/>
</g>
<defs>
<clipPath id="clip0_2053_650">
<rect width="20" height="20" fill="white"/>
</clipPath>
</defs>
</svg>
